<svg xmlns="http://www.w3.org/2000/svg"><symbol id="clocktower" viewBox="0 0 256 256"><path d="M246.4 197.7a22 22 0 0 1-2.4 2.8c-13.9 13.7-27.9 27.2-41.7 41-3 3.1-4.6 1.7-6.9-.6-16-16.3-35.2-26.8-57.8-30.1-31.7-4.6-59.9 3.7-84.2 24.8-2.4 2-2.4 3.5 0 5.4s3.6 3.6 5.4 5.3 4.3 3.5 1 6.8-4.9 1.9-7.3-.6c-13.5-13.3-27-26.6-40.7-39.7-3-2.8-2.8-4.3 0-7.2 33.1-32.9 73.3-47 119.5-45.5 36.3 1.2 67 16 93.8 39.7 3.1 2.8 4.8 2.9 7.3-.2a43.9 43.9 0 0 1 5.7-5.7c1-.9 1.9-2.7 3.5-1.5s3.8 2.8 4.8 5.3zM74.9 151.5a45.1 45.1 0 0 1 42.4-44.2c13.3-.8 25.7-3.3 35.9-12.6a44.8 44.8 0 0 0 14.8-33c.1-3.5 1.1-4.6 4.6-4.6 19.6.1 39.3.1 58.9 0 3.4 0 4.3 1 4.3 4.3s-1 4.9-4.6 4.7-8.3 0-12.4-.1-3.8.6-4.1 3.5c-5 47.8-43.6 82.8-91.7 83.3a154.3 154.3 0 0 0-40 5.4c-8.3 2.2-8.4 2.2-8.1-6.7z"/><path d="M122.1 24.1c-21.2-.1-38.5 16.4-38.4 37a37.3 37.3 0 0 0 37.2 37.6c21.8 0 38.7-16.2 38.7-37.2a37.7 37.7 0 0 0-37.5-37.4zm19.6 59.4c-2.1 2.2-5 .7-7-1.4s-7-6.7-10.4-10.3c-1.9-1.9-3.3-2.1-5.3 0-3.6 3.8-7.4 7.3-11.1 11a5.6 5.6 0 0 1-6 1.2c-1.5-.5-1.1-2.1-1.1-3.5s.9-2.8 2.1-4l10.4-10.1c2.1-2.2 4-4.9 7.1-1.2a1.6 1.6 0 0 0 2.4.1c3.5-4.1 5.4-.7 7.5 1.4s6.6 6.6 10.1 9.8 3.3 5 1.3 7zM218.6 1h-16.7c-5.2 0-10.5.1-15.7-.1-3.3-.1-4.8.4-4.3 4.4 1.8 14.1 3.2 28.3 4.7 42.4.3 2.8 1.6 3.6 4.2 3.6 6.3-.1 12.7-.5 18.9.1s6.6-2 7.1-6.5c1.6-13.5 3.3-26.8 5.1-40.2.4-2.9-.4-3.7-3.3-3.7zm-9.5 16.4h-7.6a57.6 57.6 0 0 0-5.9.1c-4.3.4-4.5-2.4-4.7-5.5s2.6-3 4.7-3.1h13.5c2.3 0 3.9.3 3.5 3.2s.4 5.4-3.5 5.3z"/></symbol><symbol id="facebook" viewBox="0 0 256 256"><path id="White" d="M241 1H15A14 14 0 0 0 1 15v226a14 14 0 0 0 14 14h121.7v-98.4h-33.1v-38.3h33.1V90c0-32.8 20-50.6 49.3-50.6a266.1 266.1 0 0 1 29.6 1.5v34.3h-20.3c-16 0-19 7.5-19 18.6v24.5h37.9l-4.9 38.3h-33V255H241a14 14 0 0 0 14-14V15a14 14 0 0 0-14-14z"/></symbol><symbol id="reboot-full" viewBox="0 0 256 256"><path id="Logo_Purple_Wordmark" d="M130.9 195.6H61.8v-69.1zm25.2-48.9l-4.1-4.1-25.5-25.5-2.3-2.4-19.6-19.9a28.4 28.4 0 1 1 40.9-1.4v.2l-1.9 1.9h-.1l-13.8 13.8 31.9 31.9 19.2-19.1 3.6-5.1.6-1A73.4 73.4 0 1 0 51 74.5a72.8 72.8 0 0 0 13.6 42.6l16.1 16.4L93 146l31.6 32.2 17 17.4H205zM26 210.8h13.5c7.5 0 10.3 1 13.1 3.1s5.2 7.4 5.2 11.8-2.5 12.3-10.6 13.6L58.8 254H46.7l-10.2-14.1h-.1V254H26zm10.4 21.6h3.9c6.4 0 7.2-4 7.2-6.1 0-3.9-2.9-5.8-7.1-5.8h-4zm56.3 11.1a18.7 18.7 0 0 1-6.6 8.3 15.4 15.4 0 0 1-9.3 3 17.3 17.3 0 0 1-17.2-17.2c0-9.1 7.2-17.5 17.1-17.5s17.1 8.1 17.1 17.7a15.1 15.1 0 0 1-.2 2.6H69.2c.6 3.9 3.8 6.2 7.6 6.2a6.8 6.8 0 0 0 5.9-3.1zm-8.3-10a7.4 7.4 0 0 0-7.7-5.8 7.6 7.6 0 0 0-7.7 5.8zm68.9-13.4c11.9 0 17.5 9.4 17.5 17.4s-5.6 17.3-17.5 17.3-17.5-9.4-17.5-17.3 5.7-17.4 17.5-17.4zm0 25.6a8.3 8.3 0 1 0-7.8-8.2 8 8 0 0 0 7.8 8.2zm38.3-25.6c11.8 0 17.5 9.4 17.5 17.4s-5.7 17.3-17.5 17.3-17.5-9.4-17.5-17.3 5.6-17.4 17.5-17.4zm0 25.6a8.3 8.3 0 1 0-7.8-8.2 8 8 0 0 0 7.8 8.2zm33.6-24.4h4.8v7.4h-4.5V254h-10.4v-25.3h-4.5v-7.4h4.9v-11.2h9.7zm-92.9 16.4c0 8-5.7 17.3-17.5 17.3s-17.5-9.1-17.6-17.1v-27h9.8v26.8a7.8 7.8 0 1 0 7.8-8.2h-4.9v-9.1h5.2c11.6.2 17.2 9.4 17.2 17.3z"/></symbol><symbol id="instagram" viewBox="0 0 256 256"><path d="M128 23.9c33.9 0 37.9.1 51.3.7s19.1 2.7 23.6 4.4a39.7 39.7 0 0 1 14.6 9.5 39.7 39.7 0 0 1 9.5 14.6c1.7 4.5 3.8 11.2 4.4 23.6s.7 17.4.7 51.3-.1 37.9-.7 51.3-2.7 19.1-4.4 23.6a42.1 42.1 0 0 1-24.1 24.1c-4.5 1.7-11.2 3.8-23.6 4.4s-17.4.7-51.3.7-37.9-.1-51.3-.7-19.1-2.7-23.6-4.4a39.7 39.7 0 0 1-14.6-9.5 39.7 39.7 0 0 1-9.5-14.6c-1.7-4.5-3.8-11.2-4.4-23.6s-.7-17.4-.7-51.3.1-37.9.7-51.3 2.7-19.1 4.4-23.6a39.7 39.7 0 0 1 9.5-14.6A39.7 39.7 0 0 1 53.1 29c4.5-1.7 11.2-3.8 23.6-4.4s17.4-.7 51.3-.7M128 1c-34.5 0-38.8.1-52.4.8S52.9 4.5 44.8 7.7A64.4 64.4 0 0 0 7.7 44.8c-3.2 8.1-5.3 17.3-5.9 30.8S1 93.5 1 128s.1 38.8.8 52.4 2.7 22.7 5.9 30.8a64.4 64.4 0 0 0 37.1 37.1c8.1 3.2 17.3 5.3 30.8 5.9s17.9.8 52.4.8 38.8-.1 52.4-.8 22.7-2.7 30.8-5.9a64.4 64.4 0 0 0 37.1-37.1c3.2-8.1 5.3-17.3 5.9-30.8s.8-17.9.8-52.4-.1-38.8-.8-52.4-2.7-22.7-5.9-30.8a64.4 64.4 0 0 0-37.1-37.1c-8.1-3.2-17.3-5.3-30.8-5.9S162.5 1 128 1z"/><path d="M128 62.8a65.2 65.2 0 1 0 65.2 65.2A65.2 65.2 0 0 0 128 62.8zm0 107.5a42.3 42.3 0 1 1 42.3-42.3 42.3 42.3 0 0 1-42.3 42.3z"/><circle cx="195.8" cy="60.2" r="15.2"/></symbol><symbol id="reboot" viewBox="0 0 256 256"><path id="Logo_Purple_Wordmark" d="M131.8 255H41.6v-90.2zm32.9-63.8l-5.3-5.4-33.3-33.3-3-3-25.6-26.1a37 37 0 1 1 53.4-1.7h-.1l-2.6 2.5h-.1L130 142.5l41.7 41.7 25-25 4.8-6.7.8-1.2A95.9 95.9 0 1 0 27.4 96.9a95.2 95.2 0 0 0 17.8 55.6l21 21.5 16.1 16.3 41.3 42.1 22.2 22.6h82.8z"/></symbol><symbol id="twitter" viewBox="0 0 256 256"><path id="Logo_FIXED" d="M80.8 231.3c95.8 0 148.3-79.5 148.3-148.3 0-2.3 0-4.5-.1-6.7a108.1 108.1 0 0 0 26-27.1 107.5 107.5 0 0 1-30 8.3 52.6 52.6 0 0 0 23-28.9 103.7 103.7 0 0 1-33.1 12.6 52.1 52.1 0 0 0-90.2 35.7 59.4 59.4 0 0 0 1.3 11.9A148.2 148.2 0 0 1 18.6 34.3a52.4 52.4 0 0 0 16.1 69.6 51.9 51.9 0 0 1-23.5-6.5v.7a52.2 52.2 0 0 0 41.7 51.1 47.3 47.3 0 0 1-13.7 1.9 51.5 51.5 0 0 1-9.7-.9 52 52 0 0 0 48.6 36.1 103.8 103.8 0 0 1-64.7 22.4A101.9 101.9 0 0 1 1 208a148.6 148.6 0 0 0 79.8 23.3"/></symbol><symbol id="clocktower" viewBox="0 0 256 256"><path d="M246.4 197.7a22 22 0 0 1-2.4 2.8c-13.9 13.7-27.9 27.2-41.7 41-3 3.1-4.6 1.7-6.9-.6-16-16.3-35.2-26.8-57.8-30.1-31.7-4.6-59.9 3.7-84.2 24.8-2.4 2-2.4 3.5 0 5.4s3.6 3.6 5.4 5.3 4.3 3.5 1 6.8-4.9 1.9-7.3-.6c-13.5-13.3-27-26.6-40.7-39.7-3-2.8-2.8-4.3 0-7.2 33.1-32.9 73.3-47 119.5-45.5 36.3 1.2 67 16 93.8 39.7 3.1 2.8 4.8 2.9 7.3-.2a43.9 43.9 0 0 1 5.7-5.7c1-.9 1.9-2.7 3.5-1.5s3.8 2.8 4.8 5.3zM74.9 151.5a45.1 45.1 0 0 1 42.4-44.2c13.3-.8 25.7-3.3 35.9-12.6a44.8 44.8 0 0 0 14.8-33c.1-3.5 1.1-4.6 4.6-4.6 19.6.1 39.3.1 58.9 0 3.4 0 4.3 1 4.3 4.3s-1 4.9-4.6 4.7-8.3 0-12.4-.1-3.8.6-4.1 3.5c-5 47.8-43.6 82.8-91.7 83.3a154.3 154.3 0 0 0-40 5.4c-8.3 2.2-8.4 2.2-8.1-6.7z"/><path d="M122.1 24.1c-21.2-.1-38.5 16.4-38.4 37a37.3 37.3 0 0 0 37.2 37.6c21.8 0 38.7-16.2 38.7-37.2a37.7 37.7 0 0 0-37.5-37.4zm19.6 59.4c-2.1 2.2-5 .7-7-1.4s-7-6.7-10.4-10.3c-1.9-1.9-3.3-2.1-5.3 0-3.6 3.8-7.4 7.3-11.1 11a5.6 5.6 0 0 1-6 1.2c-1.5-.5-1.1-2.1-1.1-3.5s.9-2.8 2.1-4l10.4-10.1c2.1-2.2 4-4.9 7.1-1.2a1.6 1.6 0 0 0 2.4.1c3.5-4.1 5.4-.7 7.5 1.4s6.6 6.6 10.1 9.8 3.3 5 1.3 7zM218.6 1h-16.7c-5.2 0-10.5.1-15.7-.1-3.3-.1-4.8.4-4.3 4.4 1.8 14.1 3.2 28.3 4.7 42.4.3 2.8 1.6 3.6 4.2 3.6 6.3-.1 12.7-.5 18.9.1s6.6-2 7.1-6.5c1.6-13.5 3.3-26.8 5.1-40.2.4-2.9-.4-3.7-3.3-3.7zm-9.5 16.4h-7.6a57.6 57.6 0 0 0-5.9.1c-4.3.4-4.5-2.4-4.7-5.5s2.6-3 4.7-3.1h13.5c2.3 0 3.9.3 3.5 3.2s.4 5.4-3.5 5.3z"/></symbol><symbol id="facebook" viewBox="0 0 256 256"><path id="White" d="M241 1H15A14 14 0 0 0 1 15v226a14 14 0 0 0 14 14h121.7v-98.4h-33.1v-38.3h33.1V90c0-32.8 20-50.6 49.3-50.6a266.1 266.1 0 0 1 29.6 1.5v34.3h-20.3c-16 0-19 7.5-19 18.6v24.5h37.9l-4.9 38.3h-33V255H241a14 14 0 0 0 14-14V15a14 14 0 0 0-14-14z"/></symbol><symbol id="instagram" viewBox="0 0 256 256"><path d="M128 23.9c33.9 0 37.9.1 51.3.7s19.1 2.7 23.6 4.4a39.7 39.7 0 0 1 14.6 9.5 39.7 39.7 0 0 1 9.5 14.6c1.7 4.5 3.8 11.2 4.4 23.6s.7 17.4.7 51.3-.1 37.9-.7 51.3-2.7 19.1-4.4 23.6a42.1 42.1 0 0 1-24.1 24.1c-4.5 1.7-11.2 3.8-23.6 4.4s-17.4.7-51.3.7-37.9-.1-51.3-.7-19.1-2.7-23.6-4.4a39.7 39.7 0 0 1-14.6-9.5 39.7 39.7 0 0 1-9.5-14.6c-1.7-4.5-3.8-11.2-4.4-23.6s-.7-17.4-.7-51.3.1-37.9.7-51.3 2.7-19.1 4.4-23.6a39.7 39.7 0 0 1 9.5-14.6A39.7 39.7 0 0 1 53.1 29c4.5-1.7 11.2-3.8 23.6-4.4s17.4-.7 51.3-.7M128 1c-34.5 0-38.8.1-52.4.8S52.9 4.5 44.8 7.7A64.4 64.4 0 0 0 7.7 44.8c-3.2 8.1-5.3 17.3-5.9 30.8S1 93.5 1 128s.1 38.8.8 52.4 2.7 22.7 5.9 30.8a64.4 64.4 0 0 0 37.1 37.1c8.1 3.2 17.3 5.3 30.8 5.9s17.9.8 52.4.8 38.8-.1 52.4-.8 22.7-2.7 30.8-5.9a64.4 64.4 0 0 0 37.1-37.1c3.2-8.1 5.3-17.3 5.9-30.8s.8-17.9.8-52.4-.1-38.8-.8-52.4-2.7-22.7-5.9-30.8a64.4 64.4 0 0 0-37.1-37.1c-8.1-3.2-17.3-5.3-30.8-5.9S162.5 1 128 1z"/><path d="M128 62.8a65.2 65.2 0 1 0 65.2 65.2A65.2 65.2 0 0 0 128 62.8zm0 107.5a42.3 42.3 0 1 1 42.3-42.3 42.3 42.3 0 0 1-42.3 42.3z"/><circle cx="195.8" cy="60.2" r="15.2"/></symbol><symbol id="reboot-full" viewBox="0 0 256 256"><path id="Logo_Purple_Wordmark" d="M130.9 195.6H61.8v-69.1zm25.2-48.9l-4.1-4.1-25.5-25.5-2.3-2.4-19.6-19.9a28.4 28.4 0 1 1 40.9-1.4v.2l-1.9 1.9h-.1l-13.8 13.8 31.9 31.9 19.2-19.1 3.6-5.1.6-1A73.4 73.4 0 1 0 51 74.5a72.8 72.8 0 0 0 13.6 42.6l16.1 16.4L93 146l31.6 32.2 17 17.4H205zM26 210.8h13.5c7.5 0 10.3 1 13.1 3.1s5.2 7.4 5.2 11.8-2.5 12.3-10.6 13.6L58.8 254H46.7l-10.2-14.1h-.1V254H26zm10.4 21.6h3.9c6.4 0 7.2-4 7.2-6.1 0-3.9-2.9-5.8-7.1-5.8h-4zm56.3 11.1a18.7 18.7 0 0 1-6.6 8.3 15.4 15.4 0 0 1-9.3 3 17.3 17.3 0 0 1-17.2-17.2c0-9.1 7.2-17.5 17.1-17.5s17.1 8.1 17.1 17.7a15.1 15.1 0 0 1-.2 2.6H69.2c.6 3.9 3.8 6.2 7.6 6.2a6.8 6.8 0 0 0 5.9-3.1zm-8.3-10a7.4 7.4 0 0 0-7.7-5.8 7.6 7.6 0 0 0-7.7 5.8zm68.9-13.4c11.9 0 17.5 9.4 17.5 17.4s-5.6 17.3-17.5 17.3-17.5-9.4-17.5-17.3 5.7-17.4 17.5-17.4zm0 25.6a8.3 8.3 0 1 0-7.8-8.2 8 8 0 0 0 7.8 8.2zm38.3-25.6c11.8 0 17.5 9.4 17.5 17.4s-5.7 17.3-17.5 17.3-17.5-9.4-17.5-17.3 5.6-17.4 17.5-17.4zm0 25.6a8.3 8.3 0 1 0-7.8-8.2 8 8 0 0 0 7.8 8.2zm33.6-24.4h4.8v7.4h-4.5V254h-10.4v-25.3h-4.5v-7.4h4.9v-11.2h9.7zm-92.9 16.4c0 8-5.7 17.3-17.5 17.3s-17.5-9.1-17.6-17.1v-27h9.8v26.8a7.8 7.8 0 1 0 7.8-8.2h-4.9v-9.1h5.2c11.6.2 17.2 9.4 17.2 17.3z"/></symbol><symbol id="reboot" viewBox="0 0 256 256"><path id="Logo_Purple_Wordmark" d="M131.8 255H41.6v-90.2zm32.9-63.8l-5.3-5.4-33.3-33.3-3-3-25.6-26.1a37 37 0 1 1 53.4-1.7h-.1l-2.6 2.5h-.1L130 142.5l41.7 41.7 25-25 4.8-6.7.8-1.2A95.9 95.9 0 1 0 27.4 96.9a95.2 95.2 0 0 0 17.8 55.6l21 21.5 16.1 16.3 41.3 42.1 22.2 22.6h82.8z"/></symbol><symbol id="twitter" viewBox="0 0 256 256"><path id="Logo_FIXED" d="M80.8 231.3c95.8 0 148.3-79.5 148.3-148.3 0-2.3 0-4.5-.1-6.7a108.1 108.1 0 0 0 26-27.1 107.5 107.5 0 0 1-30 8.3 52.6 52.6 0 0 0 23-28.9 103.7 103.7 0 0 1-33.1 12.6 52.1 52.1 0 0 0-90.2 35.7 59.4 59.4 0 0 0 1.3 11.9A148.2 148.2 0 0 1 18.6 34.3a52.4 52.4 0 0 0 16.1 69.6 51.9 51.9 0 0 1-23.5-6.5v.7a52.2 52.2 0 0 0 41.7 51.1 47.3 47.3 0 0 1-13.7 1.9 51.5 51.5 0 0 1-9.7-.9 52 52 0 0 0 48.6 36.1 103.8 103.8 0 0 1-64.7 22.4A101.9 101.9 0 0 1 1 208a148.6 148.6 0 0 0 79.8 23.3"/></symbol></svg>